Coordinates
version=1
nRows=5
nColumns=40
inDegrees=yes

Units are S.I. units (second, meters, Newtons, ...)
If the header above contains a line with 'inDegrees', this indicates whether rotational values are in degrees (yes) or radians (no).

endheader
time	pelvis_tilt	pelvis_list	pelvis_rotation	pelvis_tx	pelvis_ty	pelvis_tz	hip_flexion_r	hip_adduction_r	hip_rotation_r	knee_angle_r	knee_angle_r_beta	ankle_angle_r	subtalar_angle_r	mtp_angle_r	hip_flexion_l	hip_adduction_l	hip_rotation_l	knee_angle_l	knee_angle_l_beta	ankle_angle_l	subtalar_angle_l	mtp_angle_l	lumbar_extension	lumbar_bending	lumbar_rotation	arm_flex_r	arm_add_r	arm_rot_r	elbow_flex_r	pro_sup_r	wrist_flex_r	wrist_dev_r	arm_flex_l	arm_add_l	arm_rot_l	elbow_flex_l	pro_sup_l	wrist_flex_l	wrist_dev_l
      3.55000000	    -32.42286483	      2.90035829	      3.75284288	     -0.32529246	      0.74293661	     -1.06335981	     27.38522666	    -12.55038086	    -14.04421834	     99.10963804	      1.72978950	    -18.38550623	      0.00000000	      0.00000000	     81.18045334	      5.73876041	    -10.64725491	     89.45366902	      1.56126105	     29.33815028	      0.00000000	      0.00000000	     -0.50064810	     -6.51099938	     -1.16460396	     89.87022172	    -20.70193432	     19.76129320	     58.08962739	     86.31772957	      0.00000000	      0.00000000	     89.93228281	    -19.94925305	     24.36540297	     55.61176015	     83.54241694	      0.00000000	      0.00000000
      3.55500000	    -32.37673862	      3.00216056	      3.70635792	     -0.32498148	      0.74254631	     -1.06329785	     27.29442904	    -12.64412116	    -13.93106419	     99.10153910	      1.72964815	    -18.50334642	      0.00000000	      0.00000000	     81.12923712	      5.69180652	    -10.79613934	     89.53493381	      1.56267939	     29.50214142	      0.00000000	      0.00000000	     -0.56997960	     -6.63299971	     -1.14026062	     89.87159425	    -20.69096928	     19.99715400	     58.12539456	     85.38352250	      0.00000000	      0.00000000	     89.93269369	    -19.98862040	     24.54030211	     55.67212973	     82.49890451	      0.00000000	      0.00000000
      3.56000000	    -32.48152302	      2.92785756	      3.76963145	     -0.32502062	      0.74184961	     -1.06341543	     27.34814376	    -12.61900905	    -14.00213639	     99.13646322	      1.73025769	    -18.32507715	      0.00000000	      0.00000000	     81.31076813	      5.72379045	    -10.72370724	     89.64335288	      1.56457166	     29.42098624	      0.00000000	      0.00000000	     -0.47851199	     -6.55782760	     -1.23372382	     89.86994296	    -20.60316770	     19.73053580	     58.09843600	     86.33618763	      0.00000000	      0.00000000	     89.93259848	    -19.94457926	     24.30796720	     55.52900115	     83.67963705	      0.00000000	      0.00000000
      3.56500000	    -32.50366068	      2.99502630	      3.80055488	     -0.32486540	      0.74137693	     -1.06353316	     27.32068608	    -12.73737094	    -13.97945149	     99.13172742	      1.73017504	    -18.51438972	      0.00000000	      0.00000000	     81.33440857	      5.75367080	    -10.83110070	     89.70318258	      1.56561589	     29.54042028	      0.00000000	      0.00000000	     -0.48825540	     -6.65002194	     -1.23983997	     89.87123314	    -20.66030230	     19.93817627	     58.16488328	     85.23956041	      0.00000000	      0.00000000	     89.93270402	    -19.93673204	     24.48517256	     55.60430268	     82.48873590	      0.00000000	      0.00000000
      3.57000000	    -32.54072208	      2.92902927	      3.82863867	     -0.32487194	      0.74080661	     -1.06348617	     27.30870487	    -12.68887232	    -14.02603527	     99.14780598	      1.73045566	    -18.37956789	      0.00000000	      0.00000000	     81.45398033	      5.74554993	    -10.75983598	     89.82100737	      1.56767232	     29.45740188	      0.00000000	      0.00000000	     -0.45875335	     -6.59410246	     -1.30630400	     89.87098972	    -20.49403087	     19.65985881	     58.04961157	     86.32345183	      0.00000000	      0.00000000	     89.93263048	    -19.94113491	     24.31324883	     55.52688769	     83.64567259	      0.00000000	      0.00000000
